<mxfile host="app.diagrams.net" modified="2022-08-02T06:02:15.625Z" agent="5.0 (Windows NT 10.0; Win64; x64) AppleWebKit/537.36 (KHTML, like Gecko) Chrome/103.0.5060.134 Safari/537.36 Edg/103.0.1264.71" etag="xO6X9ehiil9omOqEsTn0" version="20.1.1" type="github">
  <diagram id="R2lEEEUBdFMjLlhIrx00" name="Page-1">
    <mxGraphModel dx="2272" dy="793" grid="1" gridSize="10" guides="1" tooltips="1" connect="1" arrows="1" fold="1" page="1" pageScale="1" pageWidth="850" pageHeight="1100" math="0" shadow="0" extFonts="Permanent Marker^https://fonts.googleapis.com/css?family=Permanent+Marker">
      <root>
        <mxCell id="0" />
        <mxCell id="1" parent="0" />
        <mxCell id="C-vyLk0tnHw3VtMMgP7b-2" value="数据库.表格" style="shape=table;startSize=30;container=1;collapsible=1;childLayout=tableLayout;fixedRows=1;rowLines=0;fontStyle=1;align=center;resizeLast=1;fontSize=20;" parent="1" vertex="1">
          <mxGeometry x="440" y="390" width="335" height="260" as="geometry" />
        </mxCell>
        <mxCell id="uxgfzdZVZzl1ZvEDCNDV-44" value="" style="shape=partialRectangle;collapsible=0;dropTarget=0;pointerEvents=0;fillColor=none;points=[[0,0.5],[1,0.5]];portConstraint=eastwest;top=0;left=0;right=0;bottom=0;" parent="C-vyLk0tnHw3VtMMgP7b-2" vertex="1">
          <mxGeometry y="30" width="335" height="30" as="geometry" />
        </mxCell>
        <mxCell id="uxgfzdZVZzl1ZvEDCNDV-45" value="" style="shape=partialRectangle;overflow=hidden;connectable=0;fillColor=none;top=0;left=0;bottom=0;right=0;" parent="uxgfzdZVZzl1ZvEDCNDV-44" vertex="1">
          <mxGeometry width="30" height="30" as="geometry">
            <mxRectangle width="30" height="30" as="alternateBounds" />
          </mxGeometry>
        </mxCell>
        <mxCell id="uxgfzdZVZzl1ZvEDCNDV-46" value="字段1       STRING        NOT NULL" style="shape=partialRectangle;overflow=hidden;connectable=0;fillColor=none;top=0;left=0;bottom=0;right=0;align=left;spacingLeft=6;fontSize=18;" parent="uxgfzdZVZzl1ZvEDCNDV-44" vertex="1">
          <mxGeometry x="30" width="305" height="30" as="geometry">
            <mxRectangle width="305" height="30" as="alternateBounds" />
          </mxGeometry>
        </mxCell>
        <mxCell id="uxgfzdZVZzl1ZvEDCNDV-41" value="" style="shape=partialRectangle;collapsible=0;dropTarget=0;pointerEvents=0;fillColor=none;points=[[0,0.5],[1,0.5]];portConstraint=eastwest;top=0;left=0;right=0;bottom=0;" parent="C-vyLk0tnHw3VtMMgP7b-2" vertex="1">
          <mxGeometry y="60" width="335" height="30" as="geometry" />
        </mxCell>
        <mxCell id="uxgfzdZVZzl1ZvEDCNDV-42" value="" style="shape=partialRectangle;overflow=hidden;connectable=0;fillColor=none;top=0;left=0;bottom=0;right=0;" parent="uxgfzdZVZzl1ZvEDCNDV-41" vertex="1">
          <mxGeometry width="30" height="30" as="geometry">
            <mxRectangle width="30" height="30" as="alternateBounds" />
          </mxGeometry>
        </mxCell>
        <mxCell id="uxgfzdZVZzl1ZvEDCNDV-43" value="字段2       NUMBER      NULL" style="shape=partialRectangle;overflow=hidden;connectable=0;fillColor=none;top=0;left=0;bottom=0;right=0;align=left;spacingLeft=6;fontSize=18;" parent="uxgfzdZVZzl1ZvEDCNDV-41" vertex="1">
          <mxGeometry x="30" width="305" height="30" as="geometry">
            <mxRectangle width="305" height="30" as="alternateBounds" />
          </mxGeometry>
        </mxCell>
        <mxCell id="uxgfzdZVZzl1ZvEDCNDV-47" value="" style="shape=partialRectangle;collapsible=0;dropTarget=0;pointerEvents=0;fillColor=none;points=[[0,0.5],[1,0.5]];portConstraint=eastwest;top=0;left=0;right=0;bottom=0;" parent="C-vyLk0tnHw3VtMMgP7b-2" vertex="1">
          <mxGeometry y="90" width="335" height="30" as="geometry" />
        </mxCell>
        <mxCell id="uxgfzdZVZzl1ZvEDCNDV-48" value="" style="shape=partialRectangle;overflow=hidden;connectable=0;fillColor=none;top=0;left=0;bottom=0;right=0;" parent="uxgfzdZVZzl1ZvEDCNDV-47" vertex="1">
          <mxGeometry width="30" height="30" as="geometry">
            <mxRectangle width="30" height="30" as="alternateBounds" />
          </mxGeometry>
        </mxCell>
        <mxCell id="uxgfzdZVZzl1ZvEDCNDV-49" value="字段3       DATE            NOT NULL" style="shape=partialRectangle;overflow=hidden;connectable=0;fillColor=none;top=0;left=0;bottom=0;right=0;align=left;spacingLeft=6;fontSize=18;" parent="uxgfzdZVZzl1ZvEDCNDV-47" vertex="1">
          <mxGeometry x="30" width="305" height="30" as="geometry">
            <mxRectangle width="305" height="30" as="alternateBounds" />
          </mxGeometry>
        </mxCell>
        <mxCell id="uxgfzdZVZzl1ZvEDCNDV-50" value="" style="shape=partialRectangle;collapsible=0;dropTarget=0;pointerEvents=0;fillColor=none;points=[[0,0.5],[1,0.5]];portConstraint=eastwest;top=0;left=0;right=0;bottom=0;" parent="C-vyLk0tnHw3VtMMgP7b-2" vertex="1">
          <mxGeometry y="120" width="335" height="30" as="geometry" />
        </mxCell>
        <mxCell id="uxgfzdZVZzl1ZvEDCNDV-51" value="" style="shape=partialRectangle;overflow=hidden;connectable=0;fillColor=none;top=0;left=0;bottom=0;right=0;" parent="uxgfzdZVZzl1ZvEDCNDV-50" vertex="1">
          <mxGeometry width="30" height="30" as="geometry">
            <mxRectangle width="30" height="30" as="alternateBounds" />
          </mxGeometry>
        </mxCell>
        <mxCell id="uxgfzdZVZzl1ZvEDCNDV-52" value="字段4       BOOLEAN    NOT NULL" style="shape=partialRectangle;overflow=hidden;connectable=0;fillColor=none;top=0;left=0;bottom=0;right=0;align=left;spacingLeft=6;fontSize=18;" parent="uxgfzdZVZzl1ZvEDCNDV-50" vertex="1">
          <mxGeometry x="30" width="305" height="30" as="geometry">
            <mxRectangle width="305" height="30" as="alternateBounds" />
          </mxGeometry>
        </mxCell>
        <mxCell id="uxgfzdZVZzl1ZvEDCNDV-38" value="" style="shape=partialRectangle;collapsible=0;dropTarget=0;pointerEvents=0;fillColor=none;points=[[0,0.5],[1,0.5]];portConstraint=eastwest;top=0;left=0;right=0;bottom=0;" parent="C-vyLk0tnHw3VtMMgP7b-2" vertex="1">
          <mxGeometry y="150" width="335" height="30" as="geometry" />
        </mxCell>
        <mxCell id="uxgfzdZVZzl1ZvEDCNDV-39" value="" style="shape=partialRectangle;overflow=hidden;connectable=0;fillColor=none;top=0;left=0;bottom=0;right=0;" parent="uxgfzdZVZzl1ZvEDCNDV-38" vertex="1">
          <mxGeometry width="30" height="30" as="geometry">
            <mxRectangle width="30" height="30" as="alternateBounds" />
          </mxGeometry>
        </mxCell>
        <mxCell id="uxgfzdZVZzl1ZvEDCNDV-40" value="字段5       ARRAY         NULL" style="shape=partialRectangle;overflow=hidden;connectable=0;fillColor=none;top=0;left=0;bottom=0;right=0;align=left;spacingLeft=6;fontSize=18;" parent="uxgfzdZVZzl1ZvEDCNDV-38" vertex="1">
          <mxGeometry x="30" width="305" height="30" as="geometry">
            <mxRectangle width="305" height="30" as="alternateBounds" />
          </mxGeometry>
        </mxCell>
        <mxCell id="C-vyLk0tnHw3VtMMgP7b-6" value="" style="shape=partialRectangle;collapsible=0;dropTarget=0;pointerEvents=0;fillColor=none;points=[[0,0.5],[1,0.5]];portConstraint=eastwest;top=0;left=0;right=0;bottom=0;" parent="C-vyLk0tnHw3VtMMgP7b-2" vertex="1">
          <mxGeometry y="180" width="335" height="30" as="geometry" />
        </mxCell>
        <mxCell id="C-vyLk0tnHw3VtMMgP7b-7" value="" style="shape=partialRectangle;overflow=hidden;connectable=0;fillColor=none;top=0;left=0;bottom=0;right=0;" parent="C-vyLk0tnHw3VtMMgP7b-6" vertex="1">
          <mxGeometry width="30" height="30" as="geometry">
            <mxRectangle width="30" height="30" as="alternateBounds" />
          </mxGeometry>
        </mxCell>
        <mxCell id="C-vyLk0tnHw3VtMMgP7b-8" value="..." style="shape=partialRectangle;overflow=hidden;connectable=0;fillColor=none;top=0;left=0;bottom=0;right=0;align=left;spacingLeft=6;fontSize=18;" parent="C-vyLk0tnHw3VtMMgP7b-6" vertex="1">
          <mxGeometry x="30" width="305" height="30" as="geometry">
            <mxRectangle width="305" height="30" as="alternateBounds" />
          </mxGeometry>
        </mxCell>
        <mxCell id="C-vyLk0tnHw3VtMMgP7b-9" value="" style="shape=partialRectangle;collapsible=0;dropTarget=0;pointerEvents=0;fillColor=none;points=[[0,0.5],[1,0.5]];portConstraint=eastwest;top=0;left=0;right=0;bottom=0;" parent="C-vyLk0tnHw3VtMMgP7b-2" vertex="1">
          <mxGeometry y="210" width="335" height="30" as="geometry" />
        </mxCell>
        <mxCell id="C-vyLk0tnHw3VtMMgP7b-10" value="" style="shape=partialRectangle;overflow=hidden;connectable=0;fillColor=none;top=0;left=0;bottom=0;right=0;" parent="C-vyLk0tnHw3VtMMgP7b-9" vertex="1">
          <mxGeometry width="30" height="30" as="geometry">
            <mxRectangle width="30" height="30" as="alternateBounds" />
          </mxGeometry>
        </mxCell>
        <mxCell id="C-vyLk0tnHw3VtMMgP7b-11" value="字段n" style="shape=partialRectangle;overflow=hidden;connectable=0;fillColor=none;top=0;left=0;bottom=0;right=0;align=left;spacingLeft=6;fontSize=18;" parent="C-vyLk0tnHw3VtMMgP7b-9" vertex="1">
          <mxGeometry x="30" width="305" height="30" as="geometry">
            <mxRectangle width="305" height="30" as="alternateBounds" />
          </mxGeometry>
        </mxCell>
        <mxCell id="C-vyLk0tnHw3VtMMgP7b-23" value="Excel表格" style="shape=table;startSize=30;container=1;collapsible=1;childLayout=tableLayout;fixedRows=1;rowLines=0;fontStyle=1;align=center;resizeLast=1;fontSize=18;" parent="1" vertex="1">
          <mxGeometry x="100" y="390" width="270" height="260" as="geometry">
            <mxRectangle x="90" y="390" width="130" height="40" as="alternateBounds" />
          </mxGeometry>
        </mxCell>
        <mxCell id="C-vyLk0tnHw3VtMMgP7b-27" value="" style="shape=partialRectangle;collapsible=0;dropTarget=0;pointerEvents=0;fillColor=none;points=[[0,0.5],[1,0.5]];portConstraint=eastwest;top=0;left=0;right=0;bottom=0;fontSize=18;" parent="C-vyLk0tnHw3VtMMgP7b-23" vertex="1">
          <mxGeometry y="30" width="270" height="30" as="geometry" />
        </mxCell>
        <mxCell id="C-vyLk0tnHw3VtMMgP7b-28" value="" style="shape=partialRectangle;overflow=hidden;connectable=0;fillColor=none;top=0;left=0;bottom=0;right=0;fontSize=18;" parent="C-vyLk0tnHw3VtMMgP7b-27" vertex="1">
          <mxGeometry width="30" height="30" as="geometry">
            <mxRectangle width="30" height="30" as="alternateBounds" />
          </mxGeometry>
        </mxCell>
        <mxCell id="C-vyLk0tnHw3VtMMgP7b-29" value="表头1       文本        不为空" style="shape=partialRectangle;overflow=hidden;connectable=0;fillColor=none;top=0;left=0;bottom=0;right=0;align=left;spacingLeft=6;fontSize=18;" parent="C-vyLk0tnHw3VtMMgP7b-27" vertex="1">
          <mxGeometry x="30" width="240" height="30" as="geometry">
            <mxRectangle width="240" height="30" as="alternateBounds" />
          </mxGeometry>
        </mxCell>
        <mxCell id="uxgfzdZVZzl1ZvEDCNDV-10" style="edgeStyle=none;rounded=0;orthogonalLoop=1;jettySize=auto;html=1;exitX=0;exitY=0.5;exitDx=0;exitDy=0;fontSize=18;startArrow=ERmandOne;startFill=0;endArrow=ERmandOne;endFill=0;labelBorderColor=default;" parent="C-vyLk0tnHw3VtMMgP7b-23" source="uxgfzdZVZzl1ZvEDCNDV-7" target="uxgfzdZVZzl1ZvEDCNDV-7" edge="1">
          <mxGeometry relative="1" as="geometry" />
        </mxCell>
        <mxCell id="uxgfzdZVZzl1ZvEDCNDV-21" value="" style="shape=partialRectangle;collapsible=0;dropTarget=0;pointerEvents=0;fillColor=none;points=[[0,0.5],[1,0.5]];portConstraint=eastwest;top=0;left=0;right=0;bottom=0;fontSize=18;" parent="C-vyLk0tnHw3VtMMgP7b-23" vertex="1">
          <mxGeometry y="60" width="270" height="30" as="geometry" />
        </mxCell>
        <mxCell id="uxgfzdZVZzl1ZvEDCNDV-22" value="" style="shape=partialRectangle;overflow=hidden;connectable=0;fillColor=none;top=0;left=0;bottom=0;right=0;fontSize=18;" parent="uxgfzdZVZzl1ZvEDCNDV-21" vertex="1">
          <mxGeometry width="30" height="30" as="geometry">
            <mxRectangle width="30" height="30" as="alternateBounds" />
          </mxGeometry>
        </mxCell>
        <mxCell id="uxgfzdZVZzl1ZvEDCNDV-23" value="表头2       数字        允许空" style="shape=partialRectangle;overflow=hidden;connectable=0;fillColor=none;top=0;left=0;bottom=0;right=0;align=left;spacingLeft=6;fontSize=18;" parent="uxgfzdZVZzl1ZvEDCNDV-21" vertex="1">
          <mxGeometry x="30" width="240" height="30" as="geometry">
            <mxRectangle width="240" height="30" as="alternateBounds" />
          </mxGeometry>
        </mxCell>
        <mxCell id="uxgfzdZVZzl1ZvEDCNDV-24" value="" style="shape=partialRectangle;collapsible=0;dropTarget=0;pointerEvents=0;fillColor=none;points=[[0,0.5],[1,0.5]];portConstraint=eastwest;top=0;left=0;right=0;bottom=0;fontSize=18;" parent="C-vyLk0tnHw3VtMMgP7b-23" vertex="1">
          <mxGeometry y="90" width="270" height="30" as="geometry" />
        </mxCell>
        <mxCell id="uxgfzdZVZzl1ZvEDCNDV-25" value="" style="shape=partialRectangle;overflow=hidden;connectable=0;fillColor=none;top=0;left=0;bottom=0;right=0;fontSize=18;" parent="uxgfzdZVZzl1ZvEDCNDV-24" vertex="1">
          <mxGeometry width="30" height="30" as="geometry">
            <mxRectangle width="30" height="30" as="alternateBounds" />
          </mxGeometry>
        </mxCell>
        <mxCell id="uxgfzdZVZzl1ZvEDCNDV-26" value="表头3       日期        不为空" style="shape=partialRectangle;overflow=hidden;connectable=0;fillColor=none;top=0;left=0;bottom=0;right=0;align=left;spacingLeft=6;fontSize=18;" parent="uxgfzdZVZzl1ZvEDCNDV-24" vertex="1">
          <mxGeometry x="30" width="240" height="30" as="geometry">
            <mxRectangle width="240" height="30" as="alternateBounds" />
          </mxGeometry>
        </mxCell>
        <mxCell id="uxgfzdZVZzl1ZvEDCNDV-27" value="" style="shape=partialRectangle;collapsible=0;dropTarget=0;pointerEvents=0;fillColor=none;points=[[0,0.5],[1,0.5]];portConstraint=eastwest;top=0;left=0;right=0;bottom=0;fontSize=18;" parent="C-vyLk0tnHw3VtMMgP7b-23" vertex="1">
          <mxGeometry y="120" width="270" height="30" as="geometry" />
        </mxCell>
        <mxCell id="uxgfzdZVZzl1ZvEDCNDV-28" value="" style="shape=partialRectangle;overflow=hidden;connectable=0;fillColor=none;top=0;left=0;bottom=0;right=0;fontSize=18;" parent="uxgfzdZVZzl1ZvEDCNDV-27" vertex="1">
          <mxGeometry width="30" height="30" as="geometry">
            <mxRectangle width="30" height="30" as="alternateBounds" />
          </mxGeometry>
        </mxCell>
        <mxCell id="uxgfzdZVZzl1ZvEDCNDV-29" value="表头4       布尔        不为空" style="shape=partialRectangle;overflow=hidden;connectable=0;fillColor=none;top=0;left=0;bottom=0;right=0;align=left;spacingLeft=6;fontSize=18;" parent="uxgfzdZVZzl1ZvEDCNDV-27" vertex="1">
          <mxGeometry x="30" width="240" height="30" as="geometry">
            <mxRectangle width="240" height="30" as="alternateBounds" />
          </mxGeometry>
        </mxCell>
        <mxCell id="uxgfzdZVZzl1ZvEDCNDV-30" value="" style="shape=partialRectangle;collapsible=0;dropTarget=0;pointerEvents=0;fillColor=none;points=[[0,0.5],[1,0.5]];portConstraint=eastwest;top=0;left=0;right=0;bottom=0;fontSize=18;" parent="C-vyLk0tnHw3VtMMgP7b-23" vertex="1">
          <mxGeometry y="150" width="270" height="30" as="geometry" />
        </mxCell>
        <mxCell id="uxgfzdZVZzl1ZvEDCNDV-31" value="" style="shape=partialRectangle;overflow=hidden;connectable=0;fillColor=none;top=0;left=0;bottom=0;right=0;fontSize=18;" parent="uxgfzdZVZzl1ZvEDCNDV-30" vertex="1">
          <mxGeometry width="30" height="30" as="geometry">
            <mxRectangle width="30" height="30" as="alternateBounds" />
          </mxGeometry>
        </mxCell>
        <mxCell id="uxgfzdZVZzl1ZvEDCNDV-32" value="表头5       数组        允许空" style="shape=partialRectangle;overflow=hidden;connectable=0;fillColor=none;top=0;left=0;bottom=0;right=0;align=left;spacingLeft=6;fontSize=18;" parent="uxgfzdZVZzl1ZvEDCNDV-30" vertex="1">
          <mxGeometry x="30" width="240" height="30" as="geometry">
            <mxRectangle width="240" height="30" as="alternateBounds" />
          </mxGeometry>
        </mxCell>
        <mxCell id="uxgfzdZVZzl1ZvEDCNDV-33" value="" style="shape=partialRectangle;collapsible=0;dropTarget=0;pointerEvents=0;fillColor=none;points=[[0,0.5],[1,0.5]];portConstraint=eastwest;top=0;left=0;right=0;bottom=0;fontSize=18;" parent="C-vyLk0tnHw3VtMMgP7b-23" vertex="1">
          <mxGeometry y="180" width="270" height="30" as="geometry" />
        </mxCell>
        <mxCell id="uxgfzdZVZzl1ZvEDCNDV-34" value="" style="shape=partialRectangle;overflow=hidden;connectable=0;fillColor=none;top=0;left=0;bottom=0;right=0;fontSize=18;" parent="uxgfzdZVZzl1ZvEDCNDV-33" vertex="1">
          <mxGeometry width="30" height="30" as="geometry">
            <mxRectangle width="30" height="30" as="alternateBounds" />
          </mxGeometry>
        </mxCell>
        <mxCell id="uxgfzdZVZzl1ZvEDCNDV-35" value="..." style="shape=partialRectangle;overflow=hidden;connectable=0;fillColor=none;top=0;left=0;bottom=0;right=0;align=left;spacingLeft=6;fontSize=18;" parent="uxgfzdZVZzl1ZvEDCNDV-33" vertex="1">
          <mxGeometry x="30" width="240" height="30" as="geometry">
            <mxRectangle width="240" height="30" as="alternateBounds" />
          </mxGeometry>
        </mxCell>
        <mxCell id="uxgfzdZVZzl1ZvEDCNDV-7" value="" style="shape=partialRectangle;collapsible=0;dropTarget=0;pointerEvents=0;fillColor=none;points=[[0,0.5],[1,0.5]];portConstraint=eastwest;top=0;left=0;right=0;bottom=0;fontSize=18;" parent="C-vyLk0tnHw3VtMMgP7b-23" vertex="1">
          <mxGeometry y="210" width="270" height="30" as="geometry" />
        </mxCell>
        <mxCell id="uxgfzdZVZzl1ZvEDCNDV-8" value="" style="shape=partialRectangle;overflow=hidden;connectable=0;fillColor=none;top=0;left=0;bottom=0;right=0;fontSize=18;" parent="uxgfzdZVZzl1ZvEDCNDV-7" vertex="1">
          <mxGeometry width="30" height="30" as="geometry">
            <mxRectangle width="30" height="30" as="alternateBounds" />
          </mxGeometry>
        </mxCell>
        <mxCell id="uxgfzdZVZzl1ZvEDCNDV-9" value="表头n" style="shape=partialRectangle;overflow=hidden;connectable=0;fillColor=none;top=0;left=0;bottom=0;right=0;align=left;spacingLeft=6;fontSize=18;" parent="uxgfzdZVZzl1ZvEDCNDV-7" vertex="1">
          <mxGeometry x="30" width="240" height="30" as="geometry">
            <mxRectangle width="240" height="30" as="alternateBounds" />
          </mxGeometry>
        </mxCell>
        <mxCell id="uxgfzdZVZzl1ZvEDCNDV-1" value="Excel表格" style="swimlane;childLayout=stackLayout;horizontal=1;startSize=30;horizontalStack=0;rounded=1;fontSize=22;fontStyle=0;strokeWidth=2;resizeParent=0;resizeLast=1;shadow=0;dashed=0;align=center;" parent="1" vertex="1">
          <mxGeometry x="100" y="80" width="180" height="220" as="geometry" />
        </mxCell>
        <mxCell id="uxgfzdZVZzl1ZvEDCNDV-2" value="表头1&#xa;表头2&#xa;表头3&#xa;表头4&#xa;表头5&#xa;...&#xa;表头n" style="align=left;strokeColor=none;fillColor=none;spacingLeft=4;fontSize=18;verticalAlign=top;resizable=0;rotatable=0;part=1;" parent="uxgfzdZVZzl1ZvEDCNDV-1" vertex="1">
          <mxGeometry y="30" width="180" height="190" as="geometry" />
        </mxCell>
        <mxCell id="uxgfzdZVZzl1ZvEDCNDV-3" value="数据库.表格" style="swimlane;childLayout=stackLayout;horizontal=1;startSize=30;horizontalStack=0;rounded=1;fontSize=20;fontStyle=0;strokeWidth=2;resizeParent=0;resizeLast=1;shadow=0;dashed=0;align=center;" parent="1" vertex="1">
          <mxGeometry x="440" y="80" width="195" height="220" as="geometry" />
        </mxCell>
        <mxCell id="uxgfzdZVZzl1ZvEDCNDV-4" value="字段1&#xa;字段2&#xa;字段3&#xa;字段4&#xa;字段5&#xa;...&#xa;字段n&#xa;" style="align=left;strokeColor=none;fillColor=none;spacingLeft=4;fontSize=18;verticalAlign=top;resizable=0;rotatable=0;part=1;" parent="uxgfzdZVZzl1ZvEDCNDV-3" vertex="1">
          <mxGeometry y="30" width="195" height="190" as="geometry" />
        </mxCell>
        <mxCell id="uxgfzdZVZzl1ZvEDCNDV-5" style="rounded=0;orthogonalLoop=1;jettySize=auto;html=1;exitX=1;exitY=0.25;exitDx=0;exitDy=0;entryX=0;entryY=0.25;entryDx=0;entryDy=0;fontSize=18;startArrow=ERmandOne;startFill=0;endArrow=ERmandOne;endFill=0;labelBorderColor=default;" parent="1" source="uxgfzdZVZzl1ZvEDCNDV-2" target="uxgfzdZVZzl1ZvEDCNDV-4" edge="1">
          <mxGeometry relative="1" as="geometry" />
        </mxCell>
        <mxCell id="uxgfzdZVZzl1ZvEDCNDV-53" style="rounded=0;orthogonalLoop=1;jettySize=auto;html=1;entryX=0;entryY=0.5;entryDx=0;entryDy=0;fontSize=18;startArrow=ERmandOne;startFill=0;endArrow=ERmandOne;endFill=0;exitX=1;exitY=0.5;exitDx=0;exitDy=0;labelBorderColor=default;" parent="1" source="uxgfzdZVZzl1ZvEDCNDV-21" target="uxgfzdZVZzl1ZvEDCNDV-41" edge="1">
          <mxGeometry relative="1" as="geometry">
            <mxPoint x="340" y="460" as="sourcePoint" />
            <mxPoint x="445" y="460" as="targetPoint" />
          </mxGeometry>
        </mxCell>
        <mxCell id="qmVdRjTafuBQ7P_Y5fCE-1" value="t_coll_name" style="shape=table;startSize=30;container=1;collapsible=1;childLayout=tableLayout;fixedRows=1;rowLines=0;fontStyle=1;align=center;resizeLast=1;fontSize=20;" vertex="1" parent="1">
          <mxGeometry x="10" y="780" width="490" height="260" as="geometry" />
        </mxCell>
        <mxCell id="qmVdRjTafuBQ7P_Y5fCE-2" value="" style="shape=partialRectangle;collapsible=0;dropTarget=0;pointerEvents=0;fillColor=none;points=[[0,0.5],[1,0.5]];portConstraint=eastwest;top=0;left=0;right=0;bottom=0;" vertex="1" parent="qmVdRjTafuBQ7P_Y5fCE-1">
          <mxGeometry y="30" width="490" height="30" as="geometry" />
        </mxCell>
        <mxCell id="qmVdRjTafuBQ7P_Y5fCE-3" value="" style="shape=partialRectangle;overflow=hidden;connectable=0;fillColor=none;top=0;left=0;bottom=0;right=0;" vertex="1" parent="qmVdRjTafuBQ7P_Y5fCE-2">
          <mxGeometry width="30" height="30" as="geometry">
            <mxRectangle width="30" height="30" as="alternateBounds" />
          </mxGeometry>
        </mxCell>
        <mxCell id="qmVdRjTafuBQ7P_Y5fCE-4" value="field_name_01       STRING        NOT NULL" style="shape=partialRectangle;overflow=hidden;connectable=0;fillColor=none;top=0;left=0;bottom=0;right=0;align=left;spacingLeft=6;fontSize=18;" vertex="1" parent="qmVdRjTafuBQ7P_Y5fCE-2">
          <mxGeometry x="30" width="460" height="30" as="geometry">
            <mxRectangle width="460" height="30" as="alternateBounds" />
          </mxGeometry>
        </mxCell>
        <mxCell id="qmVdRjTafuBQ7P_Y5fCE-5" value="" style="shape=partialRectangle;collapsible=0;dropTarget=0;pointerEvents=0;fillColor=none;points=[[0,0.5],[1,0.5]];portConstraint=eastwest;top=0;left=0;right=0;bottom=0;" vertex="1" parent="qmVdRjTafuBQ7P_Y5fCE-1">
          <mxGeometry y="60" width="490" height="30" as="geometry" />
        </mxCell>
        <mxCell id="qmVdRjTafuBQ7P_Y5fCE-6" value="" style="shape=partialRectangle;overflow=hidden;connectable=0;fillColor=none;top=0;left=0;bottom=0;right=0;" vertex="1" parent="qmVdRjTafuBQ7P_Y5fCE-5">
          <mxGeometry width="30" height="30" as="geometry">
            <mxRectangle width="30" height="30" as="alternateBounds" />
          </mxGeometry>
        </mxCell>
        <mxCell id="qmVdRjTafuBQ7P_Y5fCE-7" value="field_name_02       NUMBER      NULL" style="shape=partialRectangle;overflow=hidden;connectable=0;fillColor=none;top=0;left=0;bottom=0;right=0;align=left;spacingLeft=6;fontSize=18;" vertex="1" parent="qmVdRjTafuBQ7P_Y5fCE-5">
          <mxGeometry x="30" width="460" height="30" as="geometry">
            <mxRectangle width="460" height="30" as="alternateBounds" />
          </mxGeometry>
        </mxCell>
        <mxCell id="qmVdRjTafuBQ7P_Y5fCE-8" value="" style="shape=partialRectangle;collapsible=0;dropTarget=0;pointerEvents=0;fillColor=none;points=[[0,0.5],[1,0.5]];portConstraint=eastwest;top=0;left=0;right=0;bottom=0;" vertex="1" parent="qmVdRjTafuBQ7P_Y5fCE-1">
          <mxGeometry y="90" width="490" height="30" as="geometry" />
        </mxCell>
        <mxCell id="qmVdRjTafuBQ7P_Y5fCE-9" value="" style="shape=partialRectangle;overflow=hidden;connectable=0;fillColor=none;top=0;left=0;bottom=0;right=0;" vertex="1" parent="qmVdRjTafuBQ7P_Y5fCE-8">
          <mxGeometry width="30" height="30" as="geometry">
            <mxRectangle width="30" height="30" as="alternateBounds" />
          </mxGeometry>
        </mxCell>
        <mxCell id="qmVdRjTafuBQ7P_Y5fCE-10" value="field_name_03       DATE            NOT NULL" style="shape=partialRectangle;overflow=hidden;connectable=0;fillColor=none;top=0;left=0;bottom=0;right=0;align=left;spacingLeft=6;fontSize=18;" vertex="1" parent="qmVdRjTafuBQ7P_Y5fCE-8">
          <mxGeometry x="30" width="460" height="30" as="geometry">
            <mxRectangle width="460" height="30" as="alternateBounds" />
          </mxGeometry>
        </mxCell>
        <mxCell id="qmVdRjTafuBQ7P_Y5fCE-11" value="" style="shape=partialRectangle;collapsible=0;dropTarget=0;pointerEvents=0;fillColor=none;points=[[0,0.5],[1,0.5]];portConstraint=eastwest;top=0;left=0;right=0;bottom=0;" vertex="1" parent="qmVdRjTafuBQ7P_Y5fCE-1">
          <mxGeometry y="120" width="490" height="30" as="geometry" />
        </mxCell>
        <mxCell id="qmVdRjTafuBQ7P_Y5fCE-12" value="" style="shape=partialRectangle;overflow=hidden;connectable=0;fillColor=none;top=0;left=0;bottom=0;right=0;" vertex="1" parent="qmVdRjTafuBQ7P_Y5fCE-11">
          <mxGeometry width="30" height="30" as="geometry">
            <mxRectangle width="30" height="30" as="alternateBounds" />
          </mxGeometry>
        </mxCell>
        <mxCell id="qmVdRjTafuBQ7P_Y5fCE-13" value="field_name_04       BOOLEAN    NOT NULL" style="shape=partialRectangle;overflow=hidden;connectable=0;fillColor=none;top=0;left=0;bottom=0;right=0;align=left;spacingLeft=6;fontSize=18;" vertex="1" parent="qmVdRjTafuBQ7P_Y5fCE-11">
          <mxGeometry x="30" width="460" height="30" as="geometry">
            <mxRectangle width="460" height="30" as="alternateBounds" />
          </mxGeometry>
        </mxCell>
        <mxCell id="qmVdRjTafuBQ7P_Y5fCE-14" value="" style="shape=partialRectangle;collapsible=0;dropTarget=0;pointerEvents=0;fillColor=none;points=[[0,0.5],[1,0.5]];portConstraint=eastwest;top=0;left=0;right=0;bottom=0;" vertex="1" parent="qmVdRjTafuBQ7P_Y5fCE-1">
          <mxGeometry y="150" width="490" height="30" as="geometry" />
        </mxCell>
        <mxCell id="qmVdRjTafuBQ7P_Y5fCE-15" value="" style="shape=partialRectangle;overflow=hidden;connectable=0;fillColor=none;top=0;left=0;bottom=0;right=0;" vertex="1" parent="qmVdRjTafuBQ7P_Y5fCE-14">
          <mxGeometry width="30" height="30" as="geometry">
            <mxRectangle width="30" height="30" as="alternateBounds" />
          </mxGeometry>
        </mxCell>
        <mxCell id="qmVdRjTafuBQ7P_Y5fCE-16" value="" style="shape=partialRectangle;overflow=hidden;connectable=0;fillColor=none;top=0;left=0;bottom=0;right=0;align=left;spacingLeft=6;fontSize=18;" vertex="1" parent="qmVdRjTafuBQ7P_Y5fCE-14">
          <mxGeometry x="30" width="460" height="30" as="geometry">
            <mxRectangle width="460" height="30" as="alternateBounds" />
          </mxGeometry>
        </mxCell>
        <mxCell id="qmVdRjTafuBQ7P_Y5fCE-17" value="" style="shape=partialRectangle;collapsible=0;dropTarget=0;pointerEvents=0;fillColor=none;points=[[0,0.5],[1,0.5]];portConstraint=eastwest;top=0;left=0;right=0;bottom=0;" vertex="1" parent="qmVdRjTafuBQ7P_Y5fCE-1">
          <mxGeometry y="180" width="490" height="30" as="geometry" />
        </mxCell>
        <mxCell id="qmVdRjTafuBQ7P_Y5fCE-18" value="" style="shape=partialRectangle;overflow=hidden;connectable=0;fillColor=none;top=0;left=0;bottom=0;right=0;" vertex="1" parent="qmVdRjTafuBQ7P_Y5fCE-17">
          <mxGeometry width="30" height="30" as="geometry">
            <mxRectangle width="30" height="30" as="alternateBounds" />
          </mxGeometry>
        </mxCell>
        <mxCell id="qmVdRjTafuBQ7P_Y5fCE-19" value="..." style="shape=partialRectangle;overflow=hidden;connectable=0;fillColor=none;top=0;left=0;bottom=0;right=0;align=left;spacingLeft=6;fontSize=18;" vertex="1" parent="qmVdRjTafuBQ7P_Y5fCE-17">
          <mxGeometry x="30" width="460" height="30" as="geometry">
            <mxRectangle width="460" height="30" as="alternateBounds" />
          </mxGeometry>
        </mxCell>
        <mxCell id="qmVdRjTafuBQ7P_Y5fCE-20" value="" style="shape=partialRectangle;collapsible=0;dropTarget=0;pointerEvents=0;fillColor=none;points=[[0,0.5],[1,0.5]];portConstraint=eastwest;top=0;left=0;right=0;bottom=0;strokeColor=#030303;" vertex="1" parent="qmVdRjTafuBQ7P_Y5fCE-1">
          <mxGeometry y="210" width="490" height="30" as="geometry" />
        </mxCell>
        <mxCell id="qmVdRjTafuBQ7P_Y5fCE-21" value="" style="shape=partialRectangle;overflow=hidden;connectable=0;fillColor=none;top=0;left=0;bottom=0;right=0;labelBorderColor=default;" vertex="1" parent="qmVdRjTafuBQ7P_Y5fCE-20">
          <mxGeometry width="30" height="30" as="geometry">
            <mxRectangle width="30" height="30" as="alternateBounds" />
          </mxGeometry>
        </mxCell>
        <mxCell id="qmVdRjTafuBQ7P_Y5fCE-22" value="" style="shape=partialRectangle;overflow=hidden;connectable=0;fillColor=none;top=0;left=0;bottom=0;right=0;align=left;spacingLeft=6;fontSize=18;labelBorderColor=default;" vertex="1" parent="qmVdRjTafuBQ7P_Y5fCE-20">
          <mxGeometry x="30" width="460" height="30" as="geometry">
            <mxRectangle width="460" height="30" as="alternateBounds" />
          </mxGeometry>
        </mxCell>
        <mxCell id="qmVdRjTafuBQ7P_Y5fCE-46" value="t_etm_log" style="shape=table;startSize=30;container=1;collapsible=1;childLayout=tableLayout;fixedRows=1;rowLines=0;fontStyle=1;align=center;resizeLast=1;labelBorderColor=none;strokeColor=#030303;fontSize=20;" vertex="1" parent="1">
          <mxGeometry x="620" y="880" width="590" height="450" as="geometry" />
        </mxCell>
        <mxCell id="qmVdRjTafuBQ7P_Y5fCE-47" value="" style="shape=tableRow;horizontal=0;startSize=0;swimlaneHead=0;swimlaneBody=0;fillColor=none;collapsible=0;dropTarget=0;points=[[0,0.5],[1,0.5]];portConstraint=eastwest;top=0;left=0;right=0;bottom=1;labelBorderColor=default;strokeColor=#030303;" vertex="1" parent="qmVdRjTafuBQ7P_Y5fCE-46">
          <mxGeometry y="30" width="590" height="30" as="geometry" />
        </mxCell>
        <mxCell id="qmVdRjTafuBQ7P_Y5fCE-48" value="PK" style="shape=partialRectangle;connectable=0;fillColor=none;top=0;left=0;bottom=0;right=0;fontStyle=1;overflow=hidden;labelBorderColor=default;strokeColor=#030303;" vertex="1" parent="qmVdRjTafuBQ7P_Y5fCE-47">
          <mxGeometry width="30" height="30" as="geometry">
            <mxRectangle width="30" height="30" as="alternateBounds" />
          </mxGeometry>
        </mxCell>
        <mxCell id="qmVdRjTafuBQ7P_Y5fCE-49" value="_id(etm_id)          STRING        NOT NULL         UNIQUE" style="shape=partialRectangle;connectable=0;fillColor=none;top=0;left=0;bottom=0;right=0;align=left;spacingLeft=6;fontStyle=0;overflow=hidden;labelBorderColor=none;strokeColor=#030303;fontSize=18;" vertex="1" parent="qmVdRjTafuBQ7P_Y5fCE-47">
          <mxGeometry x="30" width="560" height="30" as="geometry">
            <mxRectangle width="560" height="30" as="alternateBounds" />
          </mxGeometry>
        </mxCell>
        <mxCell id="qmVdRjTafuBQ7P_Y5fCE-50" value="" style="shape=tableRow;horizontal=0;startSize=0;swimlaneHead=0;swimlaneBody=0;fillColor=none;collapsible=0;dropTarget=0;points=[[0,0.5],[1,0.5]];portConstraint=eastwest;top=0;left=0;right=0;bottom=0;labelBorderColor=default;strokeColor=#030303;" vertex="1" parent="qmVdRjTafuBQ7P_Y5fCE-46">
          <mxGeometry y="60" width="590" height="30" as="geometry" />
        </mxCell>
        <mxCell id="qmVdRjTafuBQ7P_Y5fCE-51" value="" style="shape=partialRectangle;connectable=0;fillColor=none;top=0;left=0;bottom=0;right=0;editable=1;overflow=hidden;labelBorderColor=default;strokeColor=#030303;" vertex="1" parent="qmVdRjTafuBQ7P_Y5fCE-50">
          <mxGeometry width="30" height="30" as="geometry">
            <mxRectangle width="30" height="30" as="alternateBounds" />
          </mxGeometry>
        </mxCell>
        <mxCell id="qmVdRjTafuBQ7P_Y5fCE-52" value="excel_name          STRING        NOT NULL" style="shape=partialRectangle;connectable=0;fillColor=none;top=0;left=0;bottom=0;right=0;align=left;spacingLeft=6;overflow=hidden;labelBorderColor=none;strokeColor=#030303;fontSize=18;" vertex="1" parent="qmVdRjTafuBQ7P_Y5fCE-50">
          <mxGeometry x="30" width="560" height="30" as="geometry">
            <mxRectangle width="560" height="30" as="alternateBounds" />
          </mxGeometry>
        </mxCell>
        <mxCell id="qmVdRjTafuBQ7P_Y5fCE-53" value="" style="shape=tableRow;horizontal=0;startSize=0;swimlaneHead=0;swimlaneBody=0;fillColor=none;collapsible=0;dropTarget=0;points=[[0,0.5],[1,0.5]];portConstraint=eastwest;top=0;left=0;right=0;bottom=0;labelBorderColor=default;strokeColor=#030303;" vertex="1" parent="qmVdRjTafuBQ7P_Y5fCE-46">
          <mxGeometry y="90" width="590" height="30" as="geometry" />
        </mxCell>
        <mxCell id="qmVdRjTafuBQ7P_Y5fCE-54" value="" style="shape=partialRectangle;connectable=0;fillColor=none;top=0;left=0;bottom=0;right=0;editable=1;overflow=hidden;labelBorderColor=default;strokeColor=#030303;" vertex="1" parent="qmVdRjTafuBQ7P_Y5fCE-53">
          <mxGeometry width="30" height="30" as="geometry">
            <mxRectangle width="30" height="30" as="alternateBounds" />
          </mxGeometry>
        </mxCell>
        <mxCell id="qmVdRjTafuBQ7P_Y5fCE-55" value="sheet_name         STRING        NOT NULL" style="shape=partialRectangle;connectable=0;fillColor=none;top=0;left=0;bottom=0;right=0;align=left;spacingLeft=6;overflow=hidden;labelBorderColor=none;strokeColor=#030303;fontSize=18;" vertex="1" parent="qmVdRjTafuBQ7P_Y5fCE-53">
          <mxGeometry x="30" width="560" height="30" as="geometry">
            <mxRectangle width="560" height="30" as="alternateBounds" />
          </mxGeometry>
        </mxCell>
        <mxCell id="qmVdRjTafuBQ7P_Y5fCE-56" value="" style="shape=tableRow;horizontal=0;startSize=0;swimlaneHead=0;swimlaneBody=0;fillColor=none;collapsible=0;dropTarget=0;points=[[0,0.5],[1,0.5]];portConstraint=eastwest;top=0;left=0;right=0;bottom=0;labelBorderColor=default;strokeColor=#030303;" vertex="1" parent="qmVdRjTafuBQ7P_Y5fCE-46">
          <mxGeometry y="120" width="590" height="30" as="geometry" />
        </mxCell>
        <mxCell id="qmVdRjTafuBQ7P_Y5fCE-57" value="" style="shape=partialRectangle;connectable=0;fillColor=none;top=0;left=0;bottom=0;right=0;editable=1;overflow=hidden;labelBorderColor=default;strokeColor=#030303;" vertex="1" parent="qmVdRjTafuBQ7P_Y5fCE-56">
          <mxGeometry width="30" height="30" as="geometry">
            <mxRectangle width="30" height="30" as="alternateBounds" />
          </mxGeometry>
        </mxCell>
        <mxCell id="qmVdRjTafuBQ7P_Y5fCE-58" value="source_rows        NUMBER       NOT NULL" style="shape=partialRectangle;connectable=0;fillColor=none;top=0;left=0;bottom=0;right=0;align=left;spacingLeft=6;overflow=hidden;labelBorderColor=none;strokeColor=#030303;fontSize=18;" vertex="1" parent="qmVdRjTafuBQ7P_Y5fCE-56">
          <mxGeometry x="30" width="560" height="30" as="geometry">
            <mxRectangle width="560" height="30" as="alternateBounds" />
          </mxGeometry>
        </mxCell>
        <mxCell id="qmVdRjTafuBQ7P_Y5fCE-87" value="" style="shape=tableRow;horizontal=0;startSize=0;swimlaneHead=0;swimlaneBody=0;fillColor=none;collapsible=0;dropTarget=0;points=[[0,0.5],[1,0.5]];portConstraint=eastwest;top=0;left=0;right=0;bottom=0;labelBorderColor=default;strokeColor=#030303;" vertex="1" parent="qmVdRjTafuBQ7P_Y5fCE-46">
          <mxGeometry y="150" width="590" height="30" as="geometry" />
        </mxCell>
        <mxCell id="qmVdRjTafuBQ7P_Y5fCE-88" value="" style="shape=partialRectangle;connectable=0;fillColor=none;top=0;left=0;bottom=0;right=0;editable=1;overflow=hidden;labelBorderColor=default;strokeColor=#030303;" vertex="1" parent="qmVdRjTafuBQ7P_Y5fCE-87">
          <mxGeometry width="30" height="30" as="geometry">
            <mxRectangle width="30" height="30" as="alternateBounds" />
          </mxGeometry>
        </mxCell>
        <mxCell id="qmVdRjTafuBQ7P_Y5fCE-89" value="upload_time          DATE           NOT NULL" style="shape=partialRectangle;connectable=0;fillColor=none;top=0;left=0;bottom=0;right=0;align=left;spacingLeft=6;overflow=hidden;labelBorderColor=none;strokeColor=#030303;fontSize=18;" vertex="1" parent="qmVdRjTafuBQ7P_Y5fCE-87">
          <mxGeometry x="30" width="560" height="30" as="geometry">
            <mxRectangle width="560" height="30" as="alternateBounds" />
          </mxGeometry>
        </mxCell>
        <mxCell id="qmVdRjTafuBQ7P_Y5fCE-90" value="" style="shape=tableRow;horizontal=0;startSize=0;swimlaneHead=0;swimlaneBody=0;fillColor=none;collapsible=0;dropTarget=0;points=[[0,0.5],[1,0.5]];portConstraint=eastwest;top=0;left=0;right=0;bottom=0;labelBorderColor=default;strokeColor=#030303;" vertex="1" parent="qmVdRjTafuBQ7P_Y5fCE-46">
          <mxGeometry y="180" width="590" height="30" as="geometry" />
        </mxCell>
        <mxCell id="qmVdRjTafuBQ7P_Y5fCE-91" value="" style="shape=partialRectangle;connectable=0;fillColor=none;top=0;left=0;bottom=0;right=0;editable=1;overflow=hidden;labelBorderColor=default;strokeColor=#030303;" vertex="1" parent="qmVdRjTafuBQ7P_Y5fCE-90">
          <mxGeometry width="30" height="30" as="geometry">
            <mxRectangle width="30" height="30" as="alternateBounds" />
          </mxGeometry>
        </mxCell>
        <mxCell id="qmVdRjTafuBQ7P_Y5fCE-92" value="coll_name            STRING           NOT NULL" style="shape=partialRectangle;connectable=0;fillColor=none;top=0;left=0;bottom=0;right=0;align=left;spacingLeft=6;overflow=hidden;labelBorderColor=none;strokeColor=#030303;fontSize=18;" vertex="1" parent="qmVdRjTafuBQ7P_Y5fCE-90">
          <mxGeometry x="30" width="560" height="30" as="geometry">
            <mxRectangle width="560" height="30" as="alternateBounds" />
          </mxGeometry>
        </mxCell>
        <mxCell id="qmVdRjTafuBQ7P_Y5fCE-152" value="" style="shape=tableRow;horizontal=0;startSize=0;swimlaneHead=0;swimlaneBody=0;fillColor=none;collapsible=0;dropTarget=0;points=[[0,0.5],[1,0.5]];portConstraint=eastwest;top=0;left=0;right=0;bottom=0;labelBorderColor=default;strokeColor=#030303;" vertex="1" parent="qmVdRjTafuBQ7P_Y5fCE-46">
          <mxGeometry y="210" width="590" height="30" as="geometry" />
        </mxCell>
        <mxCell id="qmVdRjTafuBQ7P_Y5fCE-153" value="" style="shape=partialRectangle;connectable=0;fillColor=none;top=0;left=0;bottom=0;right=0;editable=1;overflow=hidden;labelBorderColor=default;strokeColor=#030303;" vertex="1" parent="qmVdRjTafuBQ7P_Y5fCE-152">
          <mxGeometry width="30" height="30" as="geometry">
            <mxRectangle width="30" height="30" as="alternateBounds" />
          </mxGeometry>
        </mxCell>
        <mxCell id="qmVdRjTafuBQ7P_Y5fCE-154" value="target_rows          NUMBER       NOT NULL" style="shape=partialRectangle;connectable=0;fillColor=none;top=0;left=0;bottom=0;right=0;align=left;spacingLeft=6;overflow=hidden;labelBorderColor=none;strokeColor=#030303;fontSize=18;" vertex="1" parent="qmVdRjTafuBQ7P_Y5fCE-152">
          <mxGeometry x="30" width="560" height="30" as="geometry">
            <mxRectangle width="560" height="30" as="alternateBounds" />
          </mxGeometry>
        </mxCell>
        <mxCell id="qmVdRjTafuBQ7P_Y5fCE-158" value="" style="shape=tableRow;horizontal=0;startSize=0;swimlaneHead=0;swimlaneBody=0;fillColor=none;collapsible=0;dropTarget=0;points=[[0,0.5],[1,0.5]];portConstraint=eastwest;top=0;left=0;right=0;bottom=0;labelBorderColor=default;strokeColor=#030303;" vertex="1" parent="qmVdRjTafuBQ7P_Y5fCE-46">
          <mxGeometry y="240" width="590" height="30" as="geometry" />
        </mxCell>
        <mxCell id="qmVdRjTafuBQ7P_Y5fCE-159" value="FK" style="shape=partialRectangle;connectable=0;fillColor=none;top=0;left=0;bottom=0;right=0;editable=1;overflow=hidden;labelBorderColor=default;strokeColor=#030303;" vertex="1" parent="qmVdRjTafuBQ7P_Y5fCE-158">
          <mxGeometry width="30" height="30" as="geometry">
            <mxRectangle width="30" height="30" as="alternateBounds" />
          </mxGeometry>
        </mxCell>
        <mxCell id="qmVdRjTafuBQ7P_Y5fCE-160" value="db_id                    NUMBER        NOT NULL" style="shape=partialRectangle;connectable=0;fillColor=none;top=0;left=0;bottom=0;right=0;align=left;spacingLeft=6;overflow=hidden;labelBorderColor=none;strokeColor=#030303;fontSize=18;" vertex="1" parent="qmVdRjTafuBQ7P_Y5fCE-158">
          <mxGeometry x="30" width="560" height="30" as="geometry">
            <mxRectangle width="560" height="30" as="alternateBounds" />
          </mxGeometry>
        </mxCell>
        <mxCell id="qmVdRjTafuBQ7P_Y5fCE-146" value="" style="shape=tableRow;horizontal=0;startSize=0;swimlaneHead=0;swimlaneBody=0;fillColor=none;collapsible=0;dropTarget=0;points=[[0,0.5],[1,0.5]];portConstraint=eastwest;top=0;left=0;right=0;bottom=0;labelBorderColor=default;strokeColor=#030303;" vertex="1" parent="qmVdRjTafuBQ7P_Y5fCE-46">
          <mxGeometry y="270" width="590" height="30" as="geometry" />
        </mxCell>
        <mxCell id="qmVdRjTafuBQ7P_Y5fCE-147" value="" style="shape=partialRectangle;connectable=0;fillColor=none;top=0;left=0;bottom=0;right=0;editable=1;overflow=hidden;labelBorderColor=default;strokeColor=#030303;" vertex="1" parent="qmVdRjTafuBQ7P_Y5fCE-146">
          <mxGeometry width="30" height="30" as="geometry">
            <mxRectangle width="30" height="30" as="alternateBounds" />
          </mxGeometry>
        </mxCell>
        <mxCell id="qmVdRjTafuBQ7P_Y5fCE-148" value="create_time          DATE               NOT NULL" style="shape=partialRectangle;connectable=0;fillColor=none;top=0;left=0;bottom=0;right=0;align=left;spacingLeft=6;overflow=hidden;labelBorderColor=none;strokeColor=#030303;fontSize=18;" vertex="1" parent="qmVdRjTafuBQ7P_Y5fCE-146">
          <mxGeometry x="30" width="560" height="30" as="geometry">
            <mxRectangle width="560" height="30" as="alternateBounds" />
          </mxGeometry>
        </mxCell>
        <mxCell id="qmVdRjTafuBQ7P_Y5fCE-96" value="" style="shape=tableRow;horizontal=0;startSize=0;swimlaneHead=0;swimlaneBody=0;fillColor=none;collapsible=0;dropTarget=0;points=[[0,0.5],[1,0.5]];portConstraint=eastwest;top=0;left=0;right=0;bottom=0;labelBorderColor=default;strokeColor=#030303;" vertex="1" parent="qmVdRjTafuBQ7P_Y5fCE-46">
          <mxGeometry y="300" width="590" height="30" as="geometry" />
        </mxCell>
        <mxCell id="qmVdRjTafuBQ7P_Y5fCE-97" value="" style="shape=partialRectangle;connectable=0;fillColor=none;top=0;left=0;bottom=0;right=0;editable=1;overflow=hidden;labelBorderColor=default;strokeColor=#030303;" vertex="1" parent="qmVdRjTafuBQ7P_Y5fCE-96">
          <mxGeometry width="30" height="30" as="geometry">
            <mxRectangle width="30" height="30" as="alternateBounds" />
          </mxGeometry>
        </mxCell>
        <mxCell id="qmVdRjTafuBQ7P_Y5fCE-98" value="source_path         STRING          NOT NULL" style="shape=partialRectangle;connectable=0;fillColor=none;top=0;left=0;bottom=0;right=0;align=left;spacingLeft=6;overflow=hidden;labelBorderColor=none;strokeColor=#030303;fontSize=18;" vertex="1" parent="qmVdRjTafuBQ7P_Y5fCE-96">
          <mxGeometry x="30" width="560" height="30" as="geometry">
            <mxRectangle width="560" height="30" as="alternateBounds" />
          </mxGeometry>
        </mxCell>
        <mxCell id="qmVdRjTafuBQ7P_Y5fCE-99" value="" style="shape=tableRow;horizontal=0;startSize=0;swimlaneHead=0;swimlaneBody=0;fillColor=none;collapsible=0;dropTarget=0;points=[[0,0.5],[1,0.5]];portConstraint=eastwest;top=0;left=0;right=0;bottom=0;labelBorderColor=default;strokeColor=#030303;" vertex="1" parent="qmVdRjTafuBQ7P_Y5fCE-46">
          <mxGeometry y="330" width="590" height="30" as="geometry" />
        </mxCell>
        <mxCell id="qmVdRjTafuBQ7P_Y5fCE-100" value="" style="shape=partialRectangle;connectable=0;fillColor=none;top=0;left=0;bottom=0;right=0;editable=1;overflow=hidden;labelBorderColor=default;strokeColor=#030303;" vertex="1" parent="qmVdRjTafuBQ7P_Y5fCE-99">
          <mxGeometry width="30" height="30" as="geometry">
            <mxRectangle width="30" height="30" as="alternateBounds" />
          </mxGeometry>
        </mxCell>
        <mxCell id="qmVdRjTafuBQ7P_Y5fCE-101" value="backup_path        STRING          NOT NULL" style="shape=partialRectangle;connectable=0;fillColor=none;top=0;left=0;bottom=0;right=0;align=left;spacingLeft=6;overflow=hidden;labelBorderColor=none;strokeColor=#030303;fontSize=18;" vertex="1" parent="qmVdRjTafuBQ7P_Y5fCE-99">
          <mxGeometry x="30" width="560" height="30" as="geometry">
            <mxRectangle width="560" height="30" as="alternateBounds" />
          </mxGeometry>
        </mxCell>
        <mxCell id="qmVdRjTafuBQ7P_Y5fCE-149" value="" style="shape=tableRow;horizontal=0;startSize=0;swimlaneHead=0;swimlaneBody=0;fillColor=none;collapsible=0;dropTarget=0;points=[[0,0.5],[1,0.5]];portConstraint=eastwest;top=0;left=0;right=0;bottom=0;labelBorderColor=default;strokeColor=#030303;" vertex="1" parent="qmVdRjTafuBQ7P_Y5fCE-46">
          <mxGeometry y="360" width="590" height="30" as="geometry" />
        </mxCell>
        <mxCell id="qmVdRjTafuBQ7P_Y5fCE-150" value="" style="shape=partialRectangle;connectable=0;fillColor=none;top=0;left=0;bottom=0;right=0;editable=1;overflow=hidden;labelBorderColor=default;strokeColor=#030303;" vertex="1" parent="qmVdRjTafuBQ7P_Y5fCE-149">
          <mxGeometry width="30" height="30" as="geometry">
            <mxRectangle width="30" height="30" as="alternateBounds" />
          </mxGeometry>
        </mxCell>
        <mxCell id="qmVdRjTafuBQ7P_Y5fCE-151" value="is_exception        boolean          NOT NULL" style="shape=partialRectangle;connectable=0;fillColor=none;top=0;left=0;bottom=0;right=0;align=left;spacingLeft=6;overflow=hidden;labelBorderColor=none;strokeColor=#030303;fontSize=18;" vertex="1" parent="qmVdRjTafuBQ7P_Y5fCE-149">
          <mxGeometry x="30" width="560" height="30" as="geometry">
            <mxRectangle width="560" height="30" as="alternateBounds" />
          </mxGeometry>
        </mxCell>
        <mxCell id="qmVdRjTafuBQ7P_Y5fCE-102" value="" style="shape=tableRow;horizontal=0;startSize=0;swimlaneHead=0;swimlaneBody=0;fillColor=none;collapsible=0;dropTarget=0;points=[[0,0.5],[1,0.5]];portConstraint=eastwest;top=0;left=0;right=0;bottom=0;labelBorderColor=default;strokeColor=#030303;" vertex="1" parent="qmVdRjTafuBQ7P_Y5fCE-46">
          <mxGeometry y="390" width="590" height="30" as="geometry" />
        </mxCell>
        <mxCell id="qmVdRjTafuBQ7P_Y5fCE-103" value="" style="shape=partialRectangle;connectable=0;fillColor=none;top=0;left=0;bottom=0;right=0;editable=1;overflow=hidden;labelBorderColor=default;strokeColor=#030303;" vertex="1" parent="qmVdRjTafuBQ7P_Y5fCE-102">
          <mxGeometry width="30" height="30" as="geometry">
            <mxRectangle width="30" height="30" as="alternateBounds" />
          </mxGeometry>
        </mxCell>
        <mxCell id="qmVdRjTafuBQ7P_Y5fCE-104" value="record_time          DATE           NOT NULL" style="shape=partialRectangle;connectable=0;fillColor=none;top=0;left=0;bottom=0;right=0;align=left;spacingLeft=6;overflow=hidden;labelBorderColor=none;strokeColor=#030303;fontSize=18;" vertex="1" parent="qmVdRjTafuBQ7P_Y5fCE-102">
          <mxGeometry x="30" width="560" height="30" as="geometry">
            <mxRectangle width="560" height="30" as="alternateBounds" />
          </mxGeometry>
        </mxCell>
        <mxCell id="qmVdRjTafuBQ7P_Y5fCE-105" value="" style="shape=tableRow;horizontal=0;startSize=0;swimlaneHead=0;swimlaneBody=0;fillColor=none;collapsible=0;dropTarget=0;points=[[0,0.5],[1,0.5]];portConstraint=eastwest;top=0;left=0;right=0;bottom=0;labelBorderColor=default;strokeColor=#030303;" vertex="1" parent="qmVdRjTafuBQ7P_Y5fCE-46">
          <mxGeometry y="420" width="590" height="30" as="geometry" />
        </mxCell>
        <mxCell id="qmVdRjTafuBQ7P_Y5fCE-106" value="" style="shape=partialRectangle;connectable=0;fillColor=none;top=0;left=0;bottom=0;right=0;editable=1;overflow=hidden;labelBorderColor=default;strokeColor=#030303;" vertex="1" parent="qmVdRjTafuBQ7P_Y5fCE-105">
          <mxGeometry width="30" height="30" as="geometry">
            <mxRectangle width="30" height="30" as="alternateBounds" />
          </mxGeometry>
        </mxCell>
        <mxCell id="qmVdRjTafuBQ7P_Y5fCE-107" value="" style="shape=partialRectangle;connectable=0;fillColor=none;top=0;left=0;bottom=0;right=0;align=left;spacingLeft=6;overflow=hidden;labelBorderColor=none;strokeColor=#030303;fontSize=18;" vertex="1" parent="qmVdRjTafuBQ7P_Y5fCE-105">
          <mxGeometry x="30" width="560" height="30" as="geometry">
            <mxRectangle width="560" height="30" as="alternateBounds" />
          </mxGeometry>
        </mxCell>
        <mxCell id="qmVdRjTafuBQ7P_Y5fCE-74" style="edgeStyle=orthogonalEdgeStyle;rounded=0;orthogonalLoop=1;jettySize=auto;html=1;exitX=1;exitY=0.5;exitDx=0;exitDy=0;entryX=0;entryY=0.5;entryDx=0;entryDy=0;labelBorderColor=default;startArrow=ERmandOne;startFill=0;endArrow=ERmandOne;endFill=0;" edge="1" parent="1" source="qmVdRjTafuBQ7P_Y5fCE-71" target="qmVdRjTafuBQ7P_Y5fCE-47">
          <mxGeometry relative="1" as="geometry" />
        </mxCell>
        <mxCell id="qmVdRjTafuBQ7P_Y5fCE-71" value="" style="shape=tableRow;horizontal=0;startSize=0;swimlaneHead=0;swimlaneBody=0;fillColor=none;collapsible=0;dropTarget=0;points=[[0,0.5],[1,0.5]];portConstraint=eastwest;top=0;left=0;right=0;bottom=1;labelBorderColor=default;strokeColor=#030303;fontStyle=1;swimlaneLine=1;" vertex="1" parent="1">
          <mxGeometry x="10" y="990" width="490" height="30" as="geometry" />
        </mxCell>
        <mxCell id="qmVdRjTafuBQ7P_Y5fCE-72" value="FK" style="shape=partialRectangle;connectable=0;fillColor=none;top=0;left=0;bottom=0;right=0;fontStyle=1;overflow=hidden;labelBorderColor=default;strokeColor=#030303;" vertex="1" parent="qmVdRjTafuBQ7P_Y5fCE-71">
          <mxGeometry width="30" height="30" as="geometry">
            <mxRectangle width="30" height="30" as="alternateBounds" />
          </mxGeometry>
        </mxCell>
        <mxCell id="qmVdRjTafuBQ7P_Y5fCE-73" value="etm_id            STRING        NOT NULL       UNIQUE" style="shape=partialRectangle;connectable=0;fillColor=none;top=0;left=0;bottom=0;right=0;align=left;spacingLeft=6;fontStyle=0;overflow=hidden;labelBorderColor=none;strokeColor=#030303;fontSize=18;" vertex="1" parent="qmVdRjTafuBQ7P_Y5fCE-71">
          <mxGeometry x="30" width="460" height="30" as="geometry">
            <mxRectangle width="150" height="30" as="alternateBounds" />
          </mxGeometry>
        </mxCell>
        <mxCell id="qmVdRjTafuBQ7P_Y5fCE-129" value="" style="shape=tableRow;horizontal=0;startSize=0;swimlaneHead=0;swimlaneBody=0;fillColor=none;collapsible=0;dropTarget=0;points=[[0,0.5],[1,0.5]];portConstraint=eastwest;top=0;left=0;right=0;bottom=1;labelBorderColor=default;strokeColor=#030303;fontStyle=1;swimlaneLine=1;" vertex="1" parent="1">
          <mxGeometry x="10" y="960" width="490" height="30" as="geometry" />
        </mxCell>
        <mxCell id="qmVdRjTafuBQ7P_Y5fCE-130" value="" style="shape=partialRectangle;connectable=0;fillColor=none;top=0;left=0;bottom=0;right=0;fontStyle=1;overflow=hidden;labelBorderColor=default;strokeColor=#030303;" vertex="1" parent="qmVdRjTafuBQ7P_Y5fCE-129">
          <mxGeometry width="30" height="30" as="geometry">
            <mxRectangle width="30" height="30" as="alternateBounds" />
          </mxGeometry>
        </mxCell>
        <mxCell id="qmVdRjTafuBQ7P_Y5fCE-131" value="" style="shape=partialRectangle;connectable=0;fillColor=none;top=0;left=0;bottom=0;right=0;align=left;spacingLeft=6;fontStyle=0;overflow=hidden;labelBorderColor=none;strokeColor=#030303;fontSize=18;" vertex="1" parent="qmVdRjTafuBQ7P_Y5fCE-129">
          <mxGeometry x="30" width="460" height="30" as="geometry">
            <mxRectangle width="150" height="30" as="alternateBounds" />
          </mxGeometry>
        </mxCell>
        <mxCell id="qmVdRjTafuBQ7P_Y5fCE-134" value="" style="shape=tableRow;horizontal=0;startSize=0;swimlaneHead=0;swimlaneBody=0;fillColor=none;collapsible=0;dropTarget=0;points=[[0,0.5],[1,0.5]];portConstraint=eastwest;top=0;left=0;right=0;bottom=1;labelBorderColor=default;strokeColor=#030303;fontStyle=1;swimlaneLine=1;" vertex="1" parent="1">
          <mxGeometry x="620" y="1270" width="590" height="30" as="geometry" />
        </mxCell>
        <mxCell id="qmVdRjTafuBQ7P_Y5fCE-137" value="" style="shape=tableRow;horizontal=0;startSize=0;swimlaneHead=0;swimlaneBody=0;fillColor=none;collapsible=0;dropTarget=0;points=[[0,0.5],[1,0.5]];portConstraint=eastwest;top=0;left=0;right=0;bottom=1;labelBorderColor=default;strokeColor=#030303;fontStyle=1;swimlaneLine=1;" vertex="1" parent="1">
          <mxGeometry x="620" y="1090" width="590" height="30" as="geometry" />
        </mxCell>
        <mxCell id="qmVdRjTafuBQ7P_Y5fCE-136" value="idx_etm_id" style="shape=partialRectangle;connectable=0;fillColor=none;top=0;left=0;bottom=0;right=0;align=left;spacingLeft=6;fontStyle=0;overflow=hidden;labelBorderColor=none;strokeColor=#030303;fontSize=18;" vertex="1" parent="1">
          <mxGeometry x="650" y="1300" width="560" height="30" as="geometry">
            <mxRectangle width="150" height="30" as="alternateBounds" />
          </mxGeometry>
        </mxCell>
        <mxCell id="qmVdRjTafuBQ7P_Y5fCE-135" value="IDX" style="shape=partialRectangle;connectable=0;fillColor=none;top=0;left=0;bottom=0;right=0;fontStyle=1;overflow=hidden;labelBorderColor=default;strokeColor=#030303;" vertex="1" parent="1">
          <mxGeometry x="620" y="1300" width="30" height="30" as="geometry">
            <mxRectangle width="30" height="30" as="alternateBounds" />
          </mxGeometry>
        </mxCell>
        <mxCell id="qmVdRjTafuBQ7P_Y5fCE-274" style="edgeStyle=orthogonalEdgeStyle;rounded=0;orthogonalLoop=1;jettySize=auto;html=1;exitX=0;exitY=0.5;exitDx=0;exitDy=0;entryX=1;entryY=0.5;entryDx=0;entryDy=0;labelBorderColor=default;fontSize=20;startArrow=ERzeroToMany;startFill=0;endArrow=ERmandOne;endFill=0;" edge="1" parent="1" source="qmVdRjTafuBQ7P_Y5fCE-161" target="qmVdRjTafuBQ7P_Y5fCE-169">
          <mxGeometry relative="1" as="geometry" />
        </mxCell>
        <mxCell id="qmVdRjTafuBQ7P_Y5fCE-161" value="" style="shape=tableRow;horizontal=0;startSize=0;swimlaneHead=0;swimlaneBody=0;fillColor=none;collapsible=0;dropTarget=0;points=[[0,0.5],[1,0.5]];portConstraint=eastwest;top=0;left=0;right=0;bottom=1;labelBorderColor=default;strokeColor=#030303;fontStyle=1;swimlaneLine=1;" vertex="1" parent="1">
          <mxGeometry x="620" y="1120" width="590" height="30" as="geometry" />
        </mxCell>
        <mxCell id="qmVdRjTafuBQ7P_Y5fCE-163" value="" style="shape=tableRow;horizontal=0;startSize=0;swimlaneHead=0;swimlaneBody=0;fillColor=none;collapsible=0;dropTarget=0;points=[[0,0.5],[1,0.5]];portConstraint=eastwest;top=0;left=0;right=0;bottom=1;labelBorderColor=default;strokeColor=#030303;fontStyle=1;swimlaneLine=1;" vertex="1" parent="1">
          <mxGeometry x="620" y="1300" width="590" height="30" as="geometry" />
        </mxCell>
        <mxCell id="qmVdRjTafuBQ7P_Y5fCE-269" value="" style="edgeStyle=orthogonalEdgeStyle;rounded=0;orthogonalLoop=1;jettySize=auto;html=1;labelBorderColor=default;fontSize=20;startArrow=ERzeroToMany;startFill=0;endArrow=ERmandOne;endFill=0;exitX=0;exitY=0.5;exitDx=0;exitDy=0;" edge="1" parent="1" source="qmVdRjTafuBQ7P_Y5fCE-190" target="qmVdRjTafuBQ7P_Y5fCE-224">
          <mxGeometry relative="1" as="geometry">
            <mxPoint x="-60" y="1180" as="sourcePoint" />
            <mxPoint x="-50" y="1370" as="targetPoint" />
            <Array as="points">
              <mxPoint x="-50" y="1195" />
              <mxPoint x="-50" y="1305" />
            </Array>
          </mxGeometry>
        </mxCell>
        <mxCell id="qmVdRjTafuBQ7P_Y5fCE-168" value="t_database_list" style="shape=table;startSize=30;container=1;collapsible=1;childLayout=tableLayout;fixedRows=1;rowLines=0;fontStyle=1;align=center;resizeLast=1;labelBorderColor=none;strokeColor=#030303;fontSize=20;" vertex="1" parent="1">
          <mxGeometry x="10" y="1090" width="490" height="120" as="geometry" />
        </mxCell>
        <mxCell id="qmVdRjTafuBQ7P_Y5fCE-169" value="" style="shape=tableRow;horizontal=0;startSize=0;swimlaneHead=0;swimlaneBody=0;fillColor=none;collapsible=0;dropTarget=0;points=[[0,0.5],[1,0.5]];portConstraint=eastwest;top=0;left=0;right=0;bottom=1;labelBorderColor=default;strokeColor=#030303;" vertex="1" parent="qmVdRjTafuBQ7P_Y5fCE-168">
          <mxGeometry y="30" width="490" height="30" as="geometry" />
        </mxCell>
        <mxCell id="qmVdRjTafuBQ7P_Y5fCE-170" value="PK" style="shape=partialRectangle;connectable=0;fillColor=none;top=0;left=0;bottom=0;right=0;fontStyle=1;overflow=hidden;labelBorderColor=default;strokeColor=#030303;" vertex="1" parent="qmVdRjTafuBQ7P_Y5fCE-169">
          <mxGeometry width="30" height="30" as="geometry">
            <mxRectangle width="30" height="30" as="alternateBounds" />
          </mxGeometry>
        </mxCell>
        <mxCell id="qmVdRjTafuBQ7P_Y5fCE-171" value="_id(db_id)          STRING        NOT NULL         UNIQUE" style="shape=partialRectangle;connectable=0;fillColor=none;top=0;left=0;bottom=0;right=0;align=left;spacingLeft=6;fontStyle=0;overflow=hidden;labelBorderColor=none;strokeColor=#030303;fontSize=18;" vertex="1" parent="qmVdRjTafuBQ7P_Y5fCE-169">
          <mxGeometry x="30" width="460" height="30" as="geometry">
            <mxRectangle width="460" height="30" as="alternateBounds" />
          </mxGeometry>
        </mxCell>
        <mxCell id="qmVdRjTafuBQ7P_Y5fCE-172" value="" style="shape=tableRow;horizontal=0;startSize=0;swimlaneHead=0;swimlaneBody=0;fillColor=none;collapsible=0;dropTarget=0;points=[[0,0.5],[1,0.5]];portConstraint=eastwest;top=0;left=0;right=0;bottom=0;labelBorderColor=default;strokeColor=#030303;" vertex="1" parent="qmVdRjTafuBQ7P_Y5fCE-168">
          <mxGeometry y="60" width="490" height="30" as="geometry" />
        </mxCell>
        <mxCell id="qmVdRjTafuBQ7P_Y5fCE-173" value="" style="shape=partialRectangle;connectable=0;fillColor=none;top=0;left=0;bottom=0;right=0;editable=1;overflow=hidden;labelBorderColor=default;strokeColor=#030303;" vertex="1" parent="qmVdRjTafuBQ7P_Y5fCE-172">
          <mxGeometry width="30" height="30" as="geometry">
            <mxRectangle width="30" height="30" as="alternateBounds" />
          </mxGeometry>
        </mxCell>
        <mxCell id="qmVdRjTafuBQ7P_Y5fCE-174" value="..." style="shape=partialRectangle;connectable=0;fillColor=none;top=0;left=0;bottom=0;right=0;align=left;spacingLeft=6;overflow=hidden;labelBorderColor=none;strokeColor=#030303;fontSize=18;" vertex="1" parent="qmVdRjTafuBQ7P_Y5fCE-172">
          <mxGeometry x="30" width="460" height="30" as="geometry">
            <mxRectangle width="460" height="30" as="alternateBounds" />
          </mxGeometry>
        </mxCell>
        <mxCell id="qmVdRjTafuBQ7P_Y5fCE-190" value="" style="shape=tableRow;horizontal=0;startSize=0;swimlaneHead=0;swimlaneBody=0;fillColor=none;collapsible=0;dropTarget=0;points=[[0,0.5],[1,0.5]];portConstraint=eastwest;top=0;left=0;right=0;bottom=0;labelBorderColor=default;strokeColor=#030303;" vertex="1" parent="qmVdRjTafuBQ7P_Y5fCE-168">
          <mxGeometry y="90" width="490" height="30" as="geometry" />
        </mxCell>
        <mxCell id="qmVdRjTafuBQ7P_Y5fCE-191" value="FK" style="shape=partialRectangle;connectable=0;fillColor=none;top=0;left=0;bottom=0;right=0;editable=1;overflow=hidden;labelBorderColor=default;strokeColor=#030303;" vertex="1" parent="qmVdRjTafuBQ7P_Y5fCE-190">
          <mxGeometry width="30" height="30" as="geometry">
            <mxRectangle width="30" height="30" as="alternateBounds" />
          </mxGeometry>
        </mxCell>
        <mxCell id="qmVdRjTafuBQ7P_Y5fCE-192" value="layer_id               STRING        NOT NULL        " style="shape=partialRectangle;connectable=0;fillColor=none;top=0;left=0;bottom=0;right=0;align=left;spacingLeft=6;overflow=hidden;labelBorderColor=none;strokeColor=#030303;fontSize=18;" vertex="1" parent="qmVdRjTafuBQ7P_Y5fCE-190">
          <mxGeometry x="30" width="460" height="30" as="geometry">
            <mxRectangle width="460" height="30" as="alternateBounds" />
          </mxGeometry>
        </mxCell>
        <mxCell id="qmVdRjTafuBQ7P_Y5fCE-216" value="" style="shape=tableRow;horizontal=0;startSize=0;swimlaneHead=0;swimlaneBody=0;fillColor=none;collapsible=0;dropTarget=0;points=[[0,0.5],[1,0.5]];portConstraint=eastwest;top=0;left=0;right=0;bottom=1;labelBorderColor=default;strokeColor=#030303;fontStyle=1;swimlaneLine=1;" vertex="1" parent="1">
          <mxGeometry x="10" y="1150" width="490" height="30" as="geometry" />
        </mxCell>
        <mxCell id="qmVdRjTafuBQ7P_Y5fCE-223" value="t_layer_list" style="shape=table;startSize=30;container=1;collapsible=1;childLayout=tableLayout;fixedRows=1;rowLines=0;fontStyle=1;align=center;resizeLast=1;labelBorderColor=none;strokeColor=#030303;fontSize=20;" vertex="1" parent="1">
          <mxGeometry x="10" y="1260" width="510" height="90" as="geometry" />
        </mxCell>
        <mxCell id="qmVdRjTafuBQ7P_Y5fCE-224" value="" style="shape=tableRow;horizontal=0;startSize=0;swimlaneHead=0;swimlaneBody=0;fillColor=none;collapsible=0;dropTarget=0;points=[[0,0.5],[1,0.5]];portConstraint=eastwest;top=0;left=0;right=0;bottom=1;labelBorderColor=default;strokeColor=#030303;" vertex="1" parent="qmVdRjTafuBQ7P_Y5fCE-223">
          <mxGeometry y="30" width="510" height="30" as="geometry" />
        </mxCell>
        <mxCell id="qmVdRjTafuBQ7P_Y5fCE-225" value="PK" style="shape=partialRectangle;connectable=0;fillColor=none;top=0;left=0;bottom=0;right=0;fontStyle=1;overflow=hidden;labelBorderColor=default;strokeColor=#030303;" vertex="1" parent="qmVdRjTafuBQ7P_Y5fCE-224">
          <mxGeometry width="30" height="30" as="geometry">
            <mxRectangle width="30" height="30" as="alternateBounds" />
          </mxGeometry>
        </mxCell>
        <mxCell id="qmVdRjTafuBQ7P_Y5fCE-226" value="_id(layer_id)          STRING        NOT NULL         UNIQUE" style="shape=partialRectangle;connectable=0;fillColor=none;top=0;left=0;bottom=0;right=0;align=left;spacingLeft=6;fontStyle=0;overflow=hidden;labelBorderColor=none;strokeColor=#030303;fontSize=18;" vertex="1" parent="qmVdRjTafuBQ7P_Y5fCE-224">
          <mxGeometry x="30" width="480" height="30" as="geometry">
            <mxRectangle width="480" height="30" as="alternateBounds" />
          </mxGeometry>
        </mxCell>
        <mxCell id="qmVdRjTafuBQ7P_Y5fCE-227" value="" style="shape=tableRow;horizontal=0;startSize=0;swimlaneHead=0;swimlaneBody=0;fillColor=none;collapsible=0;dropTarget=0;points=[[0,0.5],[1,0.5]];portConstraint=eastwest;top=0;left=0;right=0;bottom=0;labelBorderColor=default;strokeColor=#030303;" vertex="1" parent="qmVdRjTafuBQ7P_Y5fCE-223">
          <mxGeometry y="60" width="510" height="30" as="geometry" />
        </mxCell>
        <mxCell id="qmVdRjTafuBQ7P_Y5fCE-228" value="" style="shape=partialRectangle;connectable=0;fillColor=none;top=0;left=0;bottom=0;right=0;editable=1;overflow=hidden;labelBorderColor=default;strokeColor=#030303;" vertex="1" parent="qmVdRjTafuBQ7P_Y5fCE-227">
          <mxGeometry width="30" height="30" as="geometry">
            <mxRectangle width="30" height="30" as="alternateBounds" />
          </mxGeometry>
        </mxCell>
        <mxCell id="qmVdRjTafuBQ7P_Y5fCE-229" value="..." style="shape=partialRectangle;connectable=0;fillColor=none;top=0;left=0;bottom=0;right=0;align=left;spacingLeft=6;overflow=hidden;labelBorderColor=none;strokeColor=#030303;fontSize=18;" vertex="1" parent="qmVdRjTafuBQ7P_Y5fCE-227">
          <mxGeometry x="30" width="480" height="30" as="geometry">
            <mxRectangle width="480" height="30" as="alternateBounds" />
          </mxGeometry>
        </mxCell>
      </root>
    </mxGraphModel>
  </diagram>
</mxfile>
